<svg xmlns="http://www.w3.org/2000/svg" viewBox="0 0 18 18.51"><defs><style>.cls-1{fill:#d2231a;}</style></defs><g id="Layer_2" data-name="Layer 2"><g id="管理画面_イベント詳細"><path class="cls-1" d="M5.14,3.74a1,1,0,0,0,1.05-1V1.05a1.05,1.05,0,0,0-2.1,0V2.7A1,1,0,0,0,5.14,3.74Z"/><path class="cls-1" d="M12.86,3.74a1,1,0,0,0,1.05-1V1.05a1,1,0,0,0-2.1,0V2.7A1,1,0,0,0,12.86,3.74Z"/><path class="cls-1" d="M15.48,1.49h-.65V2.7a2,2,0,0,1-3.94,0V1.49H7.11V2.7a2,2,0,0,1-3.94,0V1.49H2.52A2.52,2.52,0,0,0,0,4V16a2.52,2.52,0,0,0,2.52,2.52h13A2.52,2.52,0,0,0,18,16V4A2.52,2.52,0,0,0,15.48,1.49ZM16,15.55a1.17,1.17,0,0,1-1.16,1.17H3.15A1.17,1.17,0,0,1,2,15.55V6.18H16Z"/><rect class="cls-1" x="6.64" y="13.44" width="1.85" height="1.85"/><rect class="cls-1" x="6.64" y="10.57" width="1.85" height="1.85"/><rect class="cls-1" x="3.77" y="13.44" width="1.85" height="1.85"/><rect class="cls-1" x="3.77" y="10.57" width="1.85" height="1.85"/><rect class="cls-1" x="12.38" y="7.7" width="1.85" height="1.85"/><rect class="cls-1" x="9.51" y="7.7" width="1.85" height="1.85"/><rect class="cls-1" x="9.51" y="10.57" width="1.85" height="1.85"/><rect class="cls-1" x="12.38" y="13.44" width="1.85" height="1.85"/><rect class="cls-1" x="12.38" y="10.57" width="1.85" height="1.85"/><rect class="cls-1" x="9.51" y="13.44" width="1.85" height="1.85"/><rect class="cls-1" x="6.64" y="7.7" width="1.85" height="1.85"/><rect class="cls-1" x="3.77" y="7.7" width="1.85" height="1.85"/></g></g></svg>