<svg xmlns="http://www.w3.org/2000/svg" viewBox="0 0 31.22 31.16"><defs><style>.cls-1{fill:#f4f4f4;stroke:#d3d3d3;stroke-miterlimit:10;stroke-width:2px;}.cls-2{fill:#d3d3d3;}</style></defs><g id="Layer_2" data-name="Layer 2"><g id="管理画面_ユーザー一覧"><ellipse class="cls-1" cx="15.61" cy="15.58" rx="14.61" ry="14.58"/><path class="cls-2" d="M20.75,12.26a5.19,5.19,0,0,1-5.18,5.17h0a5.19,5.19,0,0,1-5.18-5.17v-.91a5.19,5.19,0,0,1,5.18-5.17h0a5.19,5.19,0,0,1,5.18,5.17Z"/><path class="cls-2" d="M20.73,19.7a24.11,24.11,0,0,0-5.16-.51,24.08,24.08,0,0,0-5.15.51c-2.49.46-6.2,2.05-6.2,5.45A19.5,19.5,0,0,0,10,29.28c3.23,1.29,8.72,1.45,11.79-.32a29.33,29.33,0,0,0,5.1-3.81C26.93,21.75,23.22,20.16,20.73,19.7Z"/></g></g></svg>