<svg xmlns="http://www.w3.org/2000/svg" viewBox="0 0 19.02 24.26"><defs><style>.cls-1{fill:#a4aab2;}</style></defs><g id="Layer_2" data-name="Layer 2"><g id="管理画面_ユーザー一覧"><path class="cls-1" d="M18.19,3.31a10.85,10.85,0,0,1-2.06-.57A19.34,19.34,0,0,0,12.3,2l-.12-.91A1.25,1.25,0,0,0,11,0H8.06A1.25,1.25,0,0,0,6.84,1.1L6.71,2a19.31,19.31,0,0,0-3.82.73,10.85,10.85,0,0,1-2.06.57A1.15,1.15,0,0,0,0,4.44v.79H19V4.44A1.15,1.15,0,0,0,18.19,3.31Z"/><path class="cls-1" d="M1.58,22A2.45,2.45,0,0,0,4,24.26H15A2.45,2.45,0,0,0,17.44,22l1.22-15.5H.36ZM13.59,10A.72.72,0,1,1,15,10l-.69,11.35a.72.72,0,0,1-1.44-.08Zm-4.8,0a.72.72,0,0,1,1.44,0V21.34a.72.72,0,0,1-1.44,0ZM4.67,9.27a.72.72,0,0,1,.76.68L6.12,21.3a.72.72,0,0,1-1.44.08L4,10A.72.72,0,0,1,4.67,9.27Z"/></g></g></svg>