<svg xmlns="http://www.w3.org/2000/svg" viewBox="0 0 28.94 36"><defs><style>.cls-1{fill:#d3231a;}</style></defs><g id="Layer_2" data-name="Layer 2"><g id="ダッシュボード"><g id="logo"><path class="cls-1" d="M21.53,14.27a24.54,24.54,0,0,1-3,6.67,23.4,23.4,0,0,1-2.86,3.48L17.9,36H28.58L24.34,14.27Z"/><polygon class="cls-1" points="13.54 5.78 17.77 5.78 15.32 8.92 21.98 8.92 28.94 0 18.04 0 13.54 5.78"/><path class="cls-1" d="M11.15,14.27,8.67,17.45H3l7.71-9.88V0H0V36H10.75V27.88a14.28,14.28,0,0,1-1.41.59c-.68.23-1.28.41-1.84.55l-.5.13V23.6l.56-.14.49-.13a10.63,10.63,0,0,0,3.28-1.85A16,16,0,0,0,14.54,18a18.08,18.08,0,0,0,1.88-3.72Z"/></g></g></g></svg>