<svg xmlns="http://www.w3.org/2000/svg" viewBox="0 0 18 18"><defs><style>.cls-1{fill:#d2231a;}</style></defs><g id="Layer_2" data-name="Layer 2"><g id="管理画面_イベント詳細"><path class="cls-1" d="M17.91,4a4.84,4.84,0,0,0-1.35-2.54A4.83,4.83,0,0,0,14.93.36,4.91,4.91,0,0,0,12.15.09,4.84,4.84,0,0,0,9.61,1.44L7.28,3.77A1.2,1.2,0,0,0,9,5.47l2.33-2.33a2.45,2.45,0,0,1,.83-.55,2.58,2.58,0,0,1,1.43-.14,2.9,2.9,0,0,1,.68.24,2.6,2.6,0,0,1,.61.45,2.45,2.45,0,0,1,.55.83,2.56,2.56,0,0,1,.14,1.42,2.82,2.82,0,0,1-.24.69,2.6,2.6,0,0,1-.45.61L12.53,9a1.2,1.2,0,1,0,1.7,1.7l2.33-2.33a4.83,4.83,0,0,0,1.08-1.63A4.91,4.91,0,0,0,17.91,4Z"/><path class="cls-1" d="M9,12.53,6.69,14.86a2.45,2.45,0,0,1-.83.55,2.58,2.58,0,0,1-1.43.14,2.9,2.9,0,0,1-.68-.24,2.91,2.91,0,0,1-.61-.45A2.45,2.45,0,0,1,2.59,14a2.58,2.58,0,0,1-.14-1.43,2.9,2.9,0,0,1,.24-.68,2.6,2.6,0,0,1,.45-.61L5.47,9a1.2,1.2,0,0,0-1.7-1.7L1.44,9.61A4.83,4.83,0,0,0,.36,11.24,4.91,4.91,0,0,0,.09,14a4.84,4.84,0,0,0,1.35,2.54,4.83,4.83,0,0,0,1.63,1.08,4.91,4.91,0,0,0,2.78.27,4.84,4.84,0,0,0,2.54-1.35l2.33-2.33A1.2,1.2,0,1,0,9,12.53Z"/><path class="cls-1" d="M12,6a1.2,1.2,0,0,0-1.7,0L6,10.34A1.2,1.2,0,0,0,7.66,12L12,7.66A1.2,1.2,0,0,0,12,6Z"/></g></g></svg>