<svg xmlns="http://www.w3.org/2000/svg" viewBox="0 0 38 29.75"><defs><style>.cls-1{fill:#fff;}</style></defs><g id="Layer_2" data-name="Layer 2"><g id="ダッシュボード"><polygon class="cls-1" points="19.65 5.68 19.65 5.68 19.65 5.68 19.65 5.68"/><path class="cls-1" d="M29.47,17.51A5.78,5.78,0,0,0,31,13.67L23.39,6.08a7.35,7.35,0,0,0-3,0,6.71,6.71,0,0,0-.72-.42A7.62,7.62,0,0,0,16.28,5H16.1l-1.4,1.4.22,0H15a6,6,0,0,1,1.35-.14,6.6,6.6,0,0,1,2.44.46,6,6,0,0,0-1.43,1L12.58,12.5h0l0,0a1.73,1.73,0,0,0-.07,2.37l.07.08A1.74,1.74,0,0,0,15,15l2.63-2.64a5.11,5.11,0,0,0,1.33.31,6.22,6.22,0,0,0,1.62,0,11.89,11.89,0,0,0,1.75-.35l6.21,6.21.09-.08.9.9a1.22,1.22,0,0,1,.35.84,1.24,1.24,0,0,1-.35.84,1.2,1.2,0,0,1-1.69,0,.59.59,0,0,0-.44-.18A.58.58,0,0,0,27,21a.6.6,0,0,0,0,.88,1.17,1.17,0,0,1,.34.84,1.2,1.2,0,0,1-1.19,1.19,1.17,1.17,0,0,1-.84-.35.63.63,0,0,0-.44-.18.62.62,0,0,0-.44,1.06,1.16,1.16,0,0,1,.35.84,1.19,1.19,0,0,1-2,.84l-.53-.52h0a.62.62,0,0,0-.88.88,1.19,1.19,0,1,1-1.68,1.69l-.37-.38.13-.13a1.72,1.72,0,0,0-2.44-2.43l-.13.13-.06-.06A1.71,1.71,0,0,0,14.44,23l-.13-.13A1.71,1.71,0,0,0,12,20.54l-.13-.12a1.71,1.71,0,0,0-2.31-2.31L9,17.49l0,0a2.54,2.54,0,0,1-.24-.23l-.28-.29h0a6.66,6.66,0,0,1-1-1.53,4.48,4.48,0,0,1-.41-1.25l-1,1a7.72,7.72,0,0,0,.31.77,8.07,8.07,0,0,0,1.23,1.81h0l.32.34.3.28.54.54-1,1a1.73,1.73,0,0,0,2.44,2.44,1.7,1.7,0,0,0,0,2.43,1.72,1.72,0,0,0,2.43,0,1.72,1.72,0,0,0,2.43,2.44l1-1h0l-.49.5a1.7,1.7,0,0,0,0,2.43,1.72,1.72,0,0,0,2.43,0l.5-.5.37.38a2.44,2.44,0,0,0,3.44,0,2.41,2.41,0,0,0,.69-1.42,2.59,2.59,0,0,0,.68.09A2.4,2.4,0,0,0,25.27,27,2.44,2.44,0,0,0,26,25.28v-.13h.13a2.44,2.44,0,0,0,1.72-.71,2.41,2.41,0,0,0,.72-1.72s0-.09,0-.14h.14a2.43,2.43,0,0,0,1.71-4.15Z"/><path class="cls-1" d="M14.55,4.51,10.28.25,0,10.53,4.26,14.8m.88-3.64a1.06,1.06,0,1,1,0-1.5A1.05,1.05,0,0,1,5.14,11.16Z"/><path class="cls-1" d="M27.72,0,23.45,4.26,33.74,14.55,38,10.28Zm5.14,10.91a1.06,1.06,0,1,1,1.5,0A1.05,1.05,0,0,1,32.86,10.91Z"/></g></g></svg>