<svg xmlns="http://www.w3.org/2000/svg" viewBox="0 0 38 23.44"><defs><style>.cls-1{opacity:0.5;}.cls-2{fill:#929294;}</style></defs><g id="Layer_2" data-name="Layer 2"><g id="ダッシュボード"><g class="cls-1"><path class="cls-2" d="M11,16.48c0-.05,0-.11,0-.17V15.8a2.1,2.1,0,0,1,.12-.7,13.57,13.57,0,0,0,1.86-3.68,11.49,11.49,0,0,1-1.25-4.8,10.76,10.76,0,0,1,.07-1.15,4.46,4.46,0,0,0-3.28-1.4c-2.62,0-4.76,2.14-4.76,5.47,0,2.67,2.17,5.56,2.17,5.56a2.1,2.1,0,0,1,.12.7v.51a1.61,1.61,0,0,1-1,1.47L1.59,19.19a2.71,2.71,0,0,0-1.53,2L0,21.92A1.42,1.42,0,0,0,.38,23a1.39,1.39,0,0,0,1,.45H7.05l.23-3V20.4A4.84,4.84,0,0,1,10,16.86Z"/><path class="cls-2" d="M37.94,21.16a2.71,2.71,0,0,0-1.53-2L33,17.78A1.62,1.62,0,0,1,32,16.31V15.8a2.1,2.1,0,0,1,.12-.7s2.17-2.89,2.17-5.56c0-3.33-2.13-5.47-4.76-5.47a4.46,4.46,0,0,0-3.28,1.4,10.92,10.92,0,0,1,.07,1.15,11.53,11.53,0,0,1-1.25,4.8A13.44,13.44,0,0,0,27,15.1a2.38,2.38,0,0,1,.11.7v.51c0,.06,0,.12,0,.17l.85.35a4.9,4.9,0,0,1,2.81,3.56v.08l.23,3h5.63a1.39,1.39,0,0,0,1-.45A1.42,1.42,0,0,0,38,21.92Z"/><path class="cls-2" d="M27.3,18.3l-4.17-1.71A2,2,0,0,1,22,14.81V14.2a2.45,2.45,0,0,1,.15-.85s2.62-3.5,2.62-6.73C24.76,2.59,22.18,0,19,0s-5.76,2.59-5.76,6.62c0,3.23,2.62,6.73,2.62,6.73a2.45,2.45,0,0,1,.15.85v.61a2,2,0,0,1-1.15,1.78L10.7,18.3a3.24,3.24,0,0,0-1.85,2.38l-.22,2.76H29.37l-.22-2.76A3.24,3.24,0,0,0,27.3,18.3Z"/></g></g></g></svg>