<svg xmlns="http://www.w3.org/2000/svg" viewBox="0 0 18 22.7"><defs><style>.cls-1{fill:#d2231a;}</style></defs><g id="Layer_2" data-name="Layer 2"><g id="管理画面_イベント詳細"><path class="cls-1" d="M0,0V22.7H7.83V17.22h2.34V22.7H18V0ZM5.48,19.56H3.13V17.22H5.48Zm0-4.69H3.13V12.52H5.48Zm0-4.7H3.13V7.83H5.48Zm0-4.69H3.13V3.13H5.48Zm4.69,9.39H7.83V12.52h2.34Zm0-4.7H7.83V7.83h2.34Zm0-4.69H7.83V3.13h2.34Zm4.7,14.08H12.52V17.22h2.35Zm0-4.69H12.52V12.52h2.35Zm0-4.7H12.52V7.83h2.35Zm0-4.69H12.52V3.13h2.35Z"/></g></g></svg>