<svg xmlns="http://www.w3.org/2000/svg" version="1.1" xmlns:xlink="http://www.w3.org/1999/xlink" xmlns:svgjs="http://svgjs.dev/svgjs" width="1000" height="623" viewBox="0 0 1000 623"><g transform="matrix(1,0,0,1,-0.6060606060606233,0.2522267206477409)"><svg viewBox="0 0 396 247" data-background-color="#883d1a" preserveAspectRatio="xMidYMid meet" height="623" width="1000" xmlns="http://www.w3.org/2000/svg" xmlns:xlink="http://www.w3.org/1999/xlink"><g id="tight-bounds" transform="matrix(1,0,0,1,0.2400000000000091,-0.09999999999999432)"><svg viewBox="0 0 395.52 247.2" height="247.2" width="395.52"><g><svg></svg></g><g><svg viewBox="0 0 395.52 247.2" height="247.2" width="395.52"><g transform="matrix(1,0,0,1,39.55199999999999,92.23773996789727)"><svg viewBox="0 0 316.416 62.72452006420546" height="62.72452006420546" width="316.416"><g><svg viewBox="0 0 316.416 62.72452006420546" height="62.72452006420546" width="316.416"><g><svg viewBox="0 0 316.416 62.72452006420546" height="62.72452006420546" width="316.416"><g><svg viewBox="0 0 316.416 62.72452006420546" height="62.72452006420546" width="316.416"><g id="textblocktransform"><svg viewBox="0 0 316.416 62.72452006420546" height="62.72452006420546" width="316.416" id="textblock"><g><svg viewBox="0 0 316.416 62.72452006420546" height="62.72452006420546" width="316.416"><g transform="matrix(1,0,0,1,0,0)"><svg width="316.416" viewBox="0.9500000476837158 -36.349998474121094 186.88999938964844 37.04999923706055" height="62.72452006420546" data-palette-color="#e6b17e"><path d="M26.05-36L35.05-36 28.75 0 19.7 0 22-13 12.25-13 10 0 0.95 0 7.3-36 16.3-36 13.6-20.8 23.35-20.8 26.05-36ZM62.4-36L72.65-36 58.55-17.85 66.3 0 56.05 0 51.15-11.5 42.9 0 32.65 0 45.9-17.85 39-36 49.25-36 53.4-24.3 62.4-36ZM85.9-16.75L84.8-10.45 69.84-10.45 70.95-16.75 85.9-16.75ZM101.99 0.7L101.99 0.7Q94.84 0.7 92.09-2.4L92.09-2.4Q90.19-4.6 90.19-8.55L90.19-8.55Q90.19-10.25 90.54-12.2L90.54-12.2 92.59-23.7Q94.84-36.35 108.84-36.35L108.84-36.35Q114.64-36.35 117.64-33.88 120.64-31.4 120.64-27.1L120.64-27.1Q120.64-25.1 120.07-23.13 119.49-21.15 118.94-20.2L118.94-20.2 118.39-19.2 109.54-19.2Q111.19-21.1 111.19-24.6L111.19-24.6Q111.19-26.45 110.24-27.53 109.29-28.6 107.44-28.6L107.44-28.6Q102.39-28.6 101.44-23L101.44-23 99.69-12.9Q99.44-11.6 99.44-10.35L99.44-10.35Q99.44-7.05 103.39-7.05L103.39-7.05Q108.14-7.05 109.09-12.4L109.09-12.4 118.09-12.4 117.84-10.95Q115.84 0.7 101.99 0.7ZM146.79-36L155.79-36 149.49 0 140.44 0 134.14-19.7 130.74 0 121.69 0 128.04-36 137.34-36 143.54-17.6 146.79-36ZM169.19 0.7L169.19 0.7Q162.04 0.7 159.29-2.4L159.29-2.4Q157.39-4.6 157.39-8.55L157.39-8.55Q157.39-10.25 157.74-12.2L157.74-12.2 159.79-23.7Q162.04-36.35 176.04-36.35L176.04-36.35Q181.84-36.35 184.84-33.88 187.84-31.4 187.84-27.1L187.84-27.1Q187.84-25.1 187.26-23.13 186.69-21.15 186.14-20.2L186.14-20.2 185.59-19.2 176.74-19.2Q178.39-21.1 178.39-24.6L178.39-24.6Q178.39-26.45 177.44-27.53 176.49-28.6 174.64-28.6L174.64-28.6Q169.59-28.6 168.64-23L168.64-23 166.89-12.9Q166.64-11.6 166.64-10.35L166.64-10.35Q166.64-7.05 170.59-7.05L170.59-7.05Q175.34-7.05 176.29-12.4L176.29-12.4 185.29-12.4 185.04-10.95Q183.04 0.7 169.19 0.7Z" opacity="1" transform="matrix(1,0,0,1,0,0)" fill="#e6b17e" class="undefined-text-0" data-fill-palette-color="primary" id="text-0"></path></svg></g></svg></g></svg></g></svg></g></svg></g></svg></g></svg></g><g mask="url(#3ade2de0-4a40-403a-a1f7-cb4e583c44ed)"><g transform="matrix(8.757142857142856, 0, 0, 8.757142857142856, 75.16, 1)"><svg xmlns="http://www.w3.org/2000/svg" xmlns:xlink="http://www.w3.org/1999/xlink" version="1.1" x="0" y="0" viewBox="2 2 28 28" enable-background="new 0 0 32 32" xml:space="preserve" height="28" width="28" class="icon-none" data-fill-palette-color="accent" id="none"><g fill="#c56e33" data-fill-palette-color="accent"><path d="M22 2L2 22l8 8 20-20L22 2zM5.061 23.646l2.585-2.585c0.194-0.194 0.194-0.513 0-0.707s-0.513-0.194-0.707 0L4.354 22.939 3.414 22 22 3.414l2.757 2.758-4.267 4.267c-0.194 0.194-0.194 0.513 0 0.707 0.194 0.194 0.513 0.194 0.707 0l4.267-4.267 1.208 1.207-1.854 1.853c-0.194 0.194-0.194 0.513 0 0.707s0.513 0.194 0.707 0l1.854-1.853L28.586 10 10 28.586 5.061 23.646z" fill="#c56e33" data-fill-palette-color="accent"></path><path d="M13.596 16.354l-4.242 4.242c-0.194 0.194-0.194 0.513 0 0.707s0.513 0.194 0.707 0l4.242-4.242c0.194-0.194 0.194-0.513 0-0.707S13.791 16.159 13.596 16.354z" fill="#c56e33" data-fill-palette-color="accent"></path><path d="M12.182 21.354l-2.828 2.828c-0.194 0.194-0.194 0.513 0 0.707 0.194 0.194 0.513 0.194 0.707 0l2.828-2.828c0.194-0.194 0.194-0.513 0-0.707S12.376 21.159 12.182 21.354z" fill="#c56e33" data-fill-palette-color="accent"></path><path d="M21.425 6.575c-0.194-0.194-0.513-0.194-0.707 0l-6.364 6.364c-0.194 0.194-0.194 0.513 0 0.707s0.513 0.194 0.707 0l6.364-6.364C21.619 7.088 21.619 6.77 21.425 6.575z" fill="#c56e33" data-fill-palette-color="accent"></path><path d="M19.939 15.354l-4.242 4.242c-0.194 0.194-0.194 0.513 0 0.707s0.513 0.194 0.707 0l4.242-4.242c0.194-0.194 0.194-0.513 0-0.707S20.134 15.159 19.939 15.354z" fill="#c56e33" data-fill-palette-color="accent"></path></g></svg></g></g></svg></g><defs><mask id="a0800278-57fe-4a2a-84b2-4d158eedc083"><rect width="640" height="400" fill="white"></rect><rect width="348.05760000000004" height="92.34002766156019" fill="black" y="77.4299861692199" x="23.731199999999973" id="transform-me"></rect></mask><mask id="3ade2de0-4a40-403a-a1f7-cb4e583c44ed"><rect width="640" height="400" fill="white"></rect><rect width="348.05760000000004" height="92.34002766156019" fill="black" y="77.4299861692199" x="23.731199999999973" id="transform-me"></rect></mask></defs></svg><rect width="395.52" height="247.2" fill="none" stroke="none" visibility="hidden"></rect></g></svg></g></svg>